<?xml version="1.0" encoding="utf-8"?>
<svg xmlns="http://www.w3.org/2000/svg" width="1024" height="1024" viewBox="200 140 624 620">
  <path d="M503.952 167.708C529.382 164.946 569.294 176.964 591.834 189.097C605.12 187.802 618.531 189.13 631.305 193.006C658.856 201.575 680.297 220.165 693.708 245.514C736.745 261.723 757.921 291.425 758.999 337.4C774.874 350.741 786.702 365.173 792.948 385.262C800.472 409.465 797.613 426.873 786.354 448.819C794.582 461.404 798.838 480.935 797.283 495.769C794.107 526.066 780.924 546.008 758.432 565.085C758.906 607.12 736.367 643.36 694.939 655.211C675.044 697.302 635.129 720.025 588.781 713.24C570.811 724.867 542.074 731.662 521.086 733.95C485.938 735.307 464.427 727 433.821 712.581C420.033 715.071 405.847 714.158 392.493 709.92C373.372 703.911 353.366 689.849 341.625 673.543C337.765 668.182 334.604 661.765 331.549 655.871C317.253 651.657 300.636 642.057 290.063 631.569C270.069 611.737 263.989 591.567 263.557 564.239C247.239 551.883 235.526 534.421 230.285 514.636C224.166 491.536 227.5 468.84 239.551 448.277C224.762 421.836 224.533 395.037 239.215 368.323C246.501 355.068 255.306 346.373 266.449 336.48C266.071 292.861 289.897 261.625 330.011 246.456C334.655 237.463 338.903 230.07 345.76 222.527C363.891 202.581 389.831 189.12 417.109 189.138C421.264 189.14 426.124 189.06 430.158 190.179C452.763 177.257 477.982 169.578 503.952 167.708Z" fill="none" stroke="white" stroke-width="8" stroke-linecap="round" stroke-linejoin="round" vector-effect="non-scaling-stroke"/>
  <path d="M423.336 404.391C429.363 389.634 442.689 376.715 455.444 367.601C461.297 363.419 484.132 354.111 491.102 353.522C510.599 351.874 531.532 350.59 549.688 358.83C565.294 365.912 577.262 370.68 588.173 384.819C597.248 395.106 603.913 409.409 606.364 423.04C609.39 439.866 607.692 460.299 607.366 477.428C606.291 483.029 603.961 492.641 601.557 497.568C595.563 509.849 582.535 525.284 571.568 533.503C563.416 539.613 543.516 544.971 533.67 548.926C530.274 550.29 519.192 549.204 515.29 549.623C494.574 550.621 485.668 548.736 466.646 540.023C462.675 538.205 454.141 534.683 450.744 531.971C439.224 522.774 428.953 512.425 423.183 498.864C413.71 476.603 415.314 464.527 415.638 441.258C415.676 438.522 416.409 427.102 416.195 425.134C418.504 419.331 421.054 410.703 423.336 404.391Z" fill="none" stroke="white" stroke-width="8" stroke-linecap="round" stroke-linejoin="round" vector-effect="non-scaling-stroke"/>
  <path d="M296.813 497.778C313.252 507.266 337.905 516.035 355.802 522.18C346.423 543.247 337.785 563.714 330.439 585.613L325.383 585.372C305.175 583 281.791 575.565 265.501 563.462C269.142 534.372 279.014 519.729 296.813 497.778Z" fill="none" stroke="white" stroke-width="8" stroke-linecap="round" stroke-linejoin="round" vector-effect="non-scaling-stroke"/>
  <path d="M725.769 498.046L726.504 498.263C744.471 519.805 753.708 535.884 756.644 564.401C742.089 575.512 718.566 583.394 700.621 585.401C698.631 585.664 697.974 585.74 695.985 585.68C694.609 584.728 690.044 571.225 689.064 568.746C686.553 562.394 684.02 555.851 681.342 549.534C677.21 539.94 672.885 530.429 668.37 521.009C685.913 515.303 709.375 505.68 725.769 498.046Z" fill="none" stroke="white" stroke-width="8" stroke-linecap="round" stroke-linejoin="round" vector-effect="non-scaling-stroke"/>
  <path d="M731.856 405.271C733.664 405.689 739.502 409.097 741.518 410.282C759.267 420.702 773.007 431.587 784.528 448.768C771.849 468.551 754.663 480.735 734.25 491.556L726.539 495.625C713.392 480.998 699.484 467.073 684.872 453.91C701.765 439.686 717.82 422.238 731.856 405.271Z" fill="none" stroke="white" stroke-width="8" stroke-linecap="round" stroke-linejoin="round" vector-effect="non-scaling-stroke"/>
  <path d="M327.637 315.718L328.43 315.766C329.497 317.09 332.737 327.835 333.935 330.531C340.75 345.858 347.25 363.588 354.845 378.413C333.131 384.984 315.218 392.165 294.612 401.697C293.783 402.09 294.278 401.965 293.086 401.853C290.872 399.782 287.933 394.721 286.183 391.994C273.938 372.924 270.312 359.381 267.891 337.576C287.527 323.322 303.684 317.911 327.637 315.718Z" fill="none" stroke="white" stroke-width="8" stroke-linecap="round" stroke-linejoin="round" vector-effect="non-scaling-stroke"/>
  <path d="M695.297 316.071C719.84 318.903 737.332 324.156 757.498 338.398C754.384 364.948 747.041 380.867 731.916 402.743C730.318 402.318 727.062 400.753 725.392 399.993C707.483 391.841 688.893 385.614 670.339 379.063C680.138 357.261 689.044 339.09 695.297 316.071Z" fill="none" stroke="white" stroke-width="8" stroke-linecap="round" stroke-linejoin="round" vector-effect="non-scaling-stroke"/>
  <path d="M292.796 404.613C304.071 419.782 318.051 432.979 331.556 446.121C333.929 448.431 336.617 450.934 339.211 452.967L339.371 453.648C324.536 467.088 310.233 481.105 296.497 495.667C271.977 483.048 256.387 471.734 241.331 448.319C255.044 426.894 271.478 416.839 292.796 404.613Z" fill="none" stroke="white" stroke-width="8" stroke-linecap="round" stroke-linejoin="round" vector-effect="non-scaling-stroke"/>
  <path d="M459.079 201.407C478.937 212.782 497.624 230.764 511.212 249.247C498.514 265.457 490.272 277.828 479.073 295.071L473.622 303.518C460.658 294.992 447.523 286.731 434.223 278.74C438.165 254.57 446.525 222.235 459.079 201.407Z" fill="none" stroke="white" stroke-width="8" stroke-linecap="round" stroke-linejoin="round" vector-effect="non-scaling-stroke"/>
  <path d="M513.33 249.071C529.335 229.251 543.189 213.977 565.539 200.933C578.818 222.779 585.329 253.042 589.814 278.284C580.999 284.109 572.085 289.78 563.074 295.296C561.036 296.566 552.465 301.705 551.136 302.928L550.417 302.887C538.788 284.058 527.229 266.336 513.33 249.071Z" fill="none" stroke="white" stroke-width="8" stroke-linecap="round" stroke-linejoin="round" vector-effect="non-scaling-stroke"/>
  <path d="M635.448 583.801C657.742 586.725 671.46 588.515 694.024 587.95C699.99 608.941 703.953 633.566 693.083 653.933C670.318 659.751 653.68 657.826 632.065 648.118C636.948 623.734 636.06 608.036 635.448 583.801Z" fill="none" stroke="white" stroke-width="8" stroke-linecap="round" stroke-linejoin="round" vector-effect="non-scaling-stroke"/>
  <path d="M508.26 170.683C511.747 170.425 517.002 170.914 520.459 171.513C538.323 174.468 554.22 184.554 564.502 199.458C545.241 209.88 527.879 228.227 514.194 245.234C513.369 246.437 513.42 246.621 512.158 247.258C495.896 227.698 482.236 212.842 459.799 199.723C460.599 198.641 461.415 197.571 462.247 196.513C474.062 181.557 489.31 172.927 508.26 170.683Z" fill="none" stroke="white" stroke-width="8" stroke-linecap="round" stroke-linejoin="round" vector-effect="non-scaling-stroke"/>
  <path d="M473.127 601.053C474.535 604.262 480.375 612.715 482.586 616.004C491.468 629.439 500.868 642.525 510.765 655.231C498.425 671.132 483.865 685.177 467.53 696.936C465.07 698.623 462.481 700.175 459.938 701.74C450.075 683.679 444.666 667.218 439.991 647.18C438.389 640.316 437.3 632.321 435.469 625.728L435.294 625.116C447.384 617.906 460.834 608.695 473.127 601.053Z" fill="none" stroke="white" stroke-width="8" stroke-linecap="round" stroke-linejoin="round" vector-effect="non-scaling-stroke"/>
  <path d="M550.143 602.242C561.903 610.172 575.715 618.6 587.893 626.025C583.438 650.411 575.682 679.583 563.454 701.215C561.061 700.031 558.249 698.103 555.955 696.636C538.656 685.164 525.981 671.195 512.921 655.391C518.57 647.55 524.667 639.991 530.283 632.026C537.209 622.206 543.595 612.311 550.143 602.242Z" fill="none" stroke="white" stroke-width="8" stroke-linecap="round" stroke-linejoin="round" vector-effect="non-scaling-stroke"/>
  <path d="M387.259 584.21L388.7 584.112C389.782 585.521 389.109 591.315 389.019 593.334C388.221 611.214 388.761 629.955 392.035 647.581C373.966 655.658 353.715 659.743 334.289 654.7C333.317 654.429 333.589 654.477 332.72 653.836C331.165 650.979 330.153 646.73 329.277 643.504C323.861 623.546 326.609 606.926 331.685 587.506C350.056 588.732 369.074 586.576 387.259 584.21Z" fill="none" stroke="white" stroke-width="8" stroke-linecap="round" stroke-linejoin="round" vector-effect="non-scaling-stroke"/>
  <path d="M666.052 245.197C674.489 243.99 684.348 245.427 692.607 247.101C701.545 270.695 700.668 290.164 693.893 314.361C682.731 314.067 674.085 314.594 663.049 315.659C654.239 316.875 645.46 318.307 636.72 319.953C638.584 298.101 637.917 276.107 634.73 254.409C644.561 249.555 655.158 246.439 666.052 245.197Z" fill="none" stroke="white" stroke-width="8" stroke-linecap="round" stroke-linejoin="round" vector-effect="non-scaling-stroke"/>
  <path d="M345.812 245.2C359.745 242.944 377.391 248.761 389.873 254.607C385.843 277.122 385.619 296.198 387.587 319.026C382.87 318.158 378.143 317.337 373.409 316.564C358.911 314.247 344.227 313.305 329.552 313.749C321.922 289.717 322.125 270.925 331.598 247.64C335.933 246.373 341.336 245.677 345.812 245.2Z" fill="none" stroke="white" stroke-width="8" stroke-linecap="round" stroke-linejoin="round" vector-effect="non-scaling-stroke"/>
  <path d="M511.688 656.871C527.968 676.597 540.262 689.134 562.071 702.884C551.053 721.043 533.114 729.733 512.521 731.483C490.335 731.055 473.752 721.253 461.097 703.216C480.726 691.28 497.431 674.786 511.688 656.871Z" fill="none" stroke="white" stroke-width="8" stroke-linecap="round" stroke-linejoin="round" vector-effect="non-scaling-stroke"/>
  <path d="M785.411 450.968C808.067 489.666 790.945 536.053 758.211 562.889C757.331 556.457 756.642 551.798 755.125 545.459C749.535 525.204 740.794 512.766 727.809 496.91C751.578 485.868 769.829 472.31 785.411 450.968Z" fill="none" stroke="white" stroke-width="8" stroke-linecap="round" stroke-linejoin="round" vector-effect="non-scaling-stroke"/>
  <path d="M240.229 450.457C242.144 452.437 247.525 460.769 250.381 463.953C264.265 479.43 277.441 487.221 295.052 497.091C281.69 513.088 273.847 524.753 267.313 544.849C265.695 550.875 264.819 556.335 263.981 562.457C228.465 532.734 219.35 491.812 240.229 450.457Z" fill="none" stroke="white" stroke-width="8" stroke-linecap="round" stroke-linejoin="round" vector-effect="non-scaling-stroke"/>
  <path d="M758.962 339.98C771.232 347.961 785.538 368.65 790.059 382.633C798.468 408.642 796.598 423.34 785.33 446.9C782.852 443.218 781.035 440.728 778.228 437.297C765.001 421.804 750.544 413.382 733.303 403.64C748.342 381.948 756.029 366.358 758.962 339.98Z" fill="none" stroke="white" stroke-width="8" stroke-linecap="round" stroke-linejoin="round" vector-effect="non-scaling-stroke"/>
  <path d="M265.747 339.372C266.304 339.885 269.33 359.023 270.36 362.233C275.039 377.088 282.302 391.001 291.815 403.331C274.683 411.863 260.676 422.029 247.828 436.304C244.865 439.562 242.959 442.337 240.467 445.964C233.314 434.034 229.719 420.309 230.107 406.405C231.027 378.208 246.073 357.759 265.747 339.372Z" fill="none" stroke="white" stroke-width="8" stroke-linecap="round" stroke-linejoin="round" vector-effect="non-scaling-stroke"/>
  <path d="M354.158 380.515L355.353 380.464C357.726 383.016 373.026 416.148 375.696 421.777C364.447 431.896 352.293 441.991 340.857 452.184L328.674 440.833C315.282 427.867 306.152 418.231 294.291 403.918C313.626 394.614 333.639 386.791 354.158 380.515Z" fill="none" stroke="white" stroke-width="8" stroke-linecap="round" stroke-linejoin="round" vector-effect="non-scaling-stroke"/>
  <path d="M669.536 380.749C688.147 387.173 712.719 395.477 730.173 404.291C720.384 416.947 708.817 429.119 697.354 440.26L683.707 452.871C673.942 443.779 658.602 430.514 648.202 422.152C655.473 410.012 663.123 393.57 669.536 380.749Z" fill="none" stroke="white" stroke-width="8" stroke-linecap="round" stroke-linejoin="round" vector-effect="non-scaling-stroke"/>
  <path d="M589.253 191.56C591.783 191.206 592.856 191.794 595.121 193.296C619.67 209.57 626.366 226.526 632.926 253.287C622.67 258.3 613.057 264.125 603.258 269.947C599.33 272.393 595.355 274.763 591.335 277.054C586.688 251.844 580.604 221.826 566.842 200.043C574.96 195.954 580.503 193.663 589.253 191.56Z" fill="none" stroke="white" stroke-width="8" stroke-linecap="round" stroke-linejoin="round" vector-effect="non-scaling-stroke"/>
  <path d="M265.522 566.22C287.556 579.82 304.364 584.613 330.014 587.428C324.068 610.388 321.702 626.491 329.359 649.865L330.69 653.57C291.111 640.525 264.927 608.503 265.522 566.22Z" fill="none" stroke="white" stroke-width="8" stroke-linecap="round" stroke-linejoin="round" vector-effect="non-scaling-stroke"/>
  <path d="M431.082 192.01C440.555 192.867 448.953 196.275 457.355 200.56C443.645 224.422 437.901 250.702 432.742 277.495L424.213 272.075C412.772 264.842 403.866 259.815 391.965 253.469C397.492 226.841 408.092 207.243 431.082 192.01Z" fill="none" stroke="white" stroke-width="8" stroke-linecap="round" stroke-linejoin="round" vector-effect="non-scaling-stroke"/>
  <path d="M433.466 626.54C434.521 627.479 436.1 637.17 436.577 639.591C440.963 661.831 447.524 682.632 458.338 702.567C450.189 706.409 444.082 708.642 435.298 710.459C431.443 708.749 428.394 706.788 424.919 704.44C406.128 689.789 398.626 671.027 393.946 648.313C407.474 641.719 420.664 634.452 433.466 626.54Z" fill="none" stroke="white" stroke-width="8" stroke-linecap="round" stroke-linejoin="round" vector-effect="non-scaling-stroke"/>
  <path d="M589.382 627.11C604.675 635.678 613.387 641.509 630.06 649.158C625.43 671.447 616.513 688.65 599.144 703.411C595.626 706.437 592.245 708.715 588.265 711.058C579.504 708.829 572.592 706.467 564.66 702.163C576.242 683.246 585.857 648.983 589.382 627.11Z" fill="none" stroke="white" stroke-width="8" stroke-linecap="round" stroke-linejoin="round" vector-effect="non-scaling-stroke"/>
  <path d="M511.167 577.118C520.302 584.07 538.178 594.177 548.721 601.123C541.614 612.408 534.164 623.474 526.38 634.304C521.678 640.756 516.297 647.358 511.774 653.734C498.546 636.534 486.112 618.738 474.512 600.4L474.474 600.095C486.591 592.559 498.989 584.358 511.167 577.118Z" fill="none" stroke="white" stroke-width="8" stroke-linecap="round" stroke-linejoin="round" vector-effect="non-scaling-stroke"/>
  <path d="M631.684 650.082C654.878 659.211 668.036 661.819 692.399 655.917C681.502 678.568 667.4 692.303 645.165 703.718C626.892 712.232 610.712 714.141 590.97 711.806C614.99 696.062 624.965 677.238 631.684 650.082Z" fill="none" stroke="white" stroke-width="8" stroke-linecap="round" stroke-linejoin="round" vector-effect="non-scaling-stroke"/>
  <path d="M512.291 250.692C526.632 268.415 536.955 284.459 548.935 303.64L548.93 304.061C536.517 311.861 523.942 319.401 511.213 326.676C499.374 319.048 487.01 312.011 475.038 304.364C486.861 286.285 498.771 267.478 512.291 250.692Z" fill="none" stroke="white" stroke-width="8" stroke-linecap="round" stroke-linejoin="round" vector-effect="non-scaling-stroke"/>
  <path d="M695.155 248.161C714.718 254.763 731.506 267.73 742.837 284.991C750.947 297.483 755.639 312.125 756.928 326.885C757.133 329.234 757.741 333.052 757.278 335.221L756.583 335.464L755.128 334.55C737.28 321.793 717.128 316.852 695.768 314.345C702.466 288.102 702.792 273.671 695.155 248.161Z" fill="none" stroke="white" stroke-width="8" stroke-linecap="round" stroke-linejoin="round" vector-effect="non-scaling-stroke"/>
  <path d="M755.975 567.052L756.361 567.543C756.908 572.131 756.194 577.19 755.632 581.733C752.887 604.384 740.621 625.955 722.3 639.613C719.543 641.668 715.488 644.427 712.472 646.019C709.679 647.493 699.323 652.754 696.561 652.371C696.208 651.064 696.683 650.652 697.241 649.08C704.489 626.734 702.094 609.648 695.713 587.683C717.357 586.898 737.845 578.348 755.975 567.052Z" fill="none" stroke="white" stroke-width="8" stroke-linecap="round" stroke-linejoin="round" vector-effect="non-scaling-stroke"/>
  <path d="M666.501 521.622C667.377 522.523 670.313 529.211 671.064 530.831C679.503 549.039 687.22 567.075 693.43 586.16C681.818 586.831 671.19 586.115 659.62 585.123C651.701 584.422 643.038 583.137 635.177 581.971C634.059 565.556 632.363 549.185 630.093 532.889C642.335 529.483 654.476 525.726 666.501 521.622Z" fill="none" stroke="white" stroke-width="8" stroke-linecap="round" stroke-linejoin="round" vector-effect="non-scaling-stroke"/>
  <path d="M357.603 522.344C366.604 526.039 385.024 531.005 394.616 533.448C393.523 548.506 390.87 566.369 389.448 582.094C382.57 583 375.687 583.868 368.799 584.697C356.166 585.907 344.822 586.688 332.164 585.911C340.406 561.814 348.002 545.513 357.603 522.344Z" fill="none" stroke="white" stroke-width="8" stroke-linecap="round" stroke-linejoin="round" vector-effect="non-scaling-stroke"/>
  <path d="M391.874 649.546C392.662 650.387 393.706 655.332 394.037 656.7C399.372 678.704 410.742 699.711 431.473 710.905C413.521 713.822 397.685 711.096 381.34 703.348C359.712 693.191 344.328 678.044 334.151 656.624C355.875 661.094 371.258 658.344 391.874 649.546Z" fill="none" stroke="white" stroke-width="8" stroke-linecap="round" stroke-linejoin="round" vector-effect="non-scaling-stroke"/>
  <path d="M676.501 316.213C681.541 315.741 688.388 315.863 693.389 316.034C687.094 339.346 678.661 356.649 668.671 378.601C663.795 377.011 658.212 375.478 653.25 374.01C645.938 372.013 638.614 370.06 631.279 368.151C633.365 354.306 636.168 335.566 636.591 321.683C650.509 319.242 662.453 317.114 676.501 316.213Z" fill="none" stroke="white" stroke-width="8" stroke-linecap="round" stroke-linejoin="round" vector-effect="non-scaling-stroke"/>
  <path d="M328.403 249.068C329.05 249.891 325.407 259.136 324.921 261.238C320.752 279.245 322.082 296.495 327.897 313.846C304.212 316.48 291.703 319.619 271.282 332.975L267.92 335.309C269.127 294.568 290.145 263.738 328.403 249.068Z" fill="none" stroke="white" stroke-width="8" stroke-linecap="round" stroke-linejoin="round" vector-effect="non-scaling-stroke"/>
  <path d="M340.729 454.667L341.722 454.883C343.746 458.403 369.686 479.654 374.595 483.708C368.89 495.997 362.166 507.684 356.856 520.444C336.699 514.166 316.897 506.586 298.385 496.384C311.713 481.739 326.271 468.178 340.729 454.667Z" fill="none" stroke="white" stroke-width="8" stroke-linecap="round" stroke-linejoin="round" vector-effect="non-scaling-stroke"/>
  <path d="M330.303 315.54C351.142 314.633 367.294 317.239 387.453 320.742C388.94 335.991 390.075 352.515 392.489 367.551L384.771 369.569C375.615 371.801 365.47 375.056 356.373 377.79C347.914 360.543 336.756 333.265 330.303 315.54Z" fill="none" stroke="white" stroke-width="8" stroke-linecap="round" stroke-linejoin="round" vector-effect="non-scaling-stroke"/>
  <path d="M413.884 191.213C418.675 190.841 423.491 190.939 428.263 191.505C404.077 209.444 397.755 224.255 390.324 252.507C378.605 246.945 368.169 244.288 355.384 243.009C347.84 242.849 340.306 243.651 332.965 245.396C335.59 238.697 341.253 230.597 345.935 225.22C363.135 205.266 387.602 193.02 413.884 191.213Z" fill="none" stroke="white" stroke-width="8" stroke-linecap="round" stroke-linejoin="round" vector-effect="non-scaling-stroke"/>
  <path d="M595.155 190.693C633.955 187.898 673.533 210.366 691.215 244.946L682.68 243.672C663.905 241.878 651.498 244.943 634.328 252.413C628.084 222.024 619.417 208.993 595.155 190.693Z" fill="none" stroke="white" stroke-width="8" stroke-linecap="round" stroke-linejoin="round" vector-effect="non-scaling-stroke"/>
  <path d="M683.482 455.33C687.952 457.138 720.865 491.858 724.78 496.545C711.838 502.699 699.528 507.39 686.19 512.57C680.011 514.916 673.797 517.169 667.551 519.328C663.35 509.241 655.586 493.327 650.409 483.67C659.122 477.529 675.334 462.767 683.482 455.33Z" fill="none" stroke="white" stroke-width="8" stroke-linecap="round" stroke-linejoin="round" vector-effect="non-scaling-stroke"/>
  <path d="M632.548 255.485C637.333 260.948 635.69 311.106 635.302 320.247C629.759 321.222 602.377 327.576 599.277 327.246L598.725 326.389C597.683 313.199 593.823 292.401 591.726 279.134C604.943 270.816 618.611 262.536 632.548 255.485Z" fill="none" stroke="white" stroke-width="8" stroke-linecap="round" stroke-linejoin="round" vector-effect="non-scaling-stroke"/>
  <path d="M597.801 577.263C608.123 579.529 623.082 581.978 633.575 583.299C634.943 604.254 635.098 625.208 630.747 645.895C630.565 646.761 630.578 646.536 629.778 646.946L628.343 646.346C615.568 640.775 601.298 632.716 589.731 624.998C592.916 610.498 595.276 592.185 597.801 577.263Z" fill="none" stroke="white" stroke-width="8" stroke-linecap="round" stroke-linejoin="round" vector-effect="non-scaling-stroke"/>
  <path d="M391.449 255.381C406.644 263.163 418.067 270.183 432.481 279.555C429.717 292.769 427.645 310.35 425.805 323.876C425.625 325.217 425.67 325.183 425.079 326.385C422.505 326.404 415.649 324.769 412.791 324.185L389.09 319.357C387.524 296.247 387.769 278.057 391.449 255.381Z" fill="none" stroke="white" stroke-width="8" stroke-linecap="round" stroke-linejoin="round" vector-effect="non-scaling-stroke"/>
  <path d="M424.214 577.634C425.506 577.466 424.95 577.286 425.966 577.969C426.95 582.102 427.942 590.659 428.609 595.176C430.021 604.926 431.633 614.645 433.445 624.329C421.988 631.472 410.219 638.103 398.173 644.203L393.504 646.5C390.323 632.444 389.65 597.913 391.095 583.655L424.214 577.634Z" fill="none" stroke="white" stroke-width="8" stroke-linecap="round" stroke-linejoin="round" vector-effect="non-scaling-stroke"/>
  <path d="M589.764 280.442C591.331 282.837 596.533 323.054 597.225 328.196C587.763 329.951 578.155 332.264 568.753 334.407L565.461 328.25C560.999 320.326 556.54 312.156 551.632 304.521C564.274 296.681 577.419 288.669 589.764 280.442Z" fill="none" stroke="white" stroke-width="8" stroke-linecap="round" stroke-linejoin="round" vector-effect="non-scaling-stroke"/>
  <path d="M376.39 423.528C379.402 427.203 388.791 447.353 391.46 452.502C386.052 461.754 380.657 472.684 375.692 482.268C372.467 479.876 368.589 476.498 365.426 473.898C357.625 467.478 349.735 460.258 342.148 453.523C353.451 443.068 364.882 433.638 376.39 423.528Z" fill="none" stroke="white" stroke-width="8" stroke-linecap="round" stroke-linejoin="round" vector-effect="non-scaling-stroke"/>
  <path d="M433.814 280.754C446.982 288.521 459.928 296.658 472.637 305.155C468.256 312.482 463.917 319.834 459.619 327.21L456.228 333.393C447.216 331.202 436.098 328.777 427.037 327.142C428.946 311.63 431.205 296.164 433.814 280.754Z" fill="none" stroke="white" stroke-width="8" stroke-linecap="round" stroke-linejoin="round" vector-effect="non-scaling-stroke"/>
  <path d="M647.346 423.783C657.353 431.181 672.844 445.402 682.451 453.904C675.614 460.426 666.941 467.932 659.722 473.886L649.475 482.1C644.896 472.776 638.162 459.79 632.812 450.953C637.788 442.135 642.63 432.755 647.346 423.783Z" fill="none" stroke="white" stroke-width="8" stroke-linecap="round" stroke-linejoin="round" vector-effect="non-scaling-stroke"/>
  <path d="M568.522 571.365C574.246 573.04 589.476 575.57 596.155 577.019C593.757 592.801 591.113 608.544 588.223 624.244L582.236 620.433C572.036 614.205 560.88 607.348 551.04 600.672C557.018 591.287 562.91 581.014 568.522 571.365Z" fill="none" stroke="white" stroke-width="8" stroke-linecap="round" stroke-linejoin="round" vector-effect="non-scaling-stroke"/>
  <path d="M427.512 576.987C436.751 575.439 446.64 573.035 455.839 570.974C460.07 579.326 467.093 590.928 471.898 599.061L471.902 599.562C459.508 607.415 447.157 615.337 434.85 623.327C432.074 607.783 430.172 592.407 427.512 576.987Z" fill="none" stroke="white" stroke-width="8" stroke-linecap="round" stroke-linejoin="round" vector-effect="non-scaling-stroke"/>
  <path d="M626.808 533.524C628.923 533.313 628.673 534.417 628.928 536.502C630.764 551.492 632.761 566.633 633.568 581.723C630.282 581.248 627.007 580.701 623.746 580.082C619.002 579.215 614.303 578.452 609.549 577.673C605.695 577.081 601.879 576.397 598.092 575.473C599.161 569.133 600.107 562.625 600.946 556.248L601.945 548.998C602.37 545.882 602.706 542.872 603.167 539.756C611.048 537.876 618.981 535.622 626.808 533.524Z" fill="none" stroke="white" stroke-width="8" stroke-linecap="round" stroke-linejoin="round" vector-effect="non-scaling-stroke"/>
  <path d="M630.927 369.967C631.994 370.338 632.907 370.591 634.005 370.863L636.006 371.372L636.993 371.617C637.257 371.689 637.522 371.76 637.786 371.831C647.551 374.33 657.248 377.088 666.867 380.101C667.141 380.184 667.415 380.267 667.689 380.349C667.537 380.683 667.387 381.017 667.24 381.353C663.236 390.536 657.059 401.514 652.588 410.736C650.755 414.166 648.905 417.72 647.022 421.102C639.911 415.742 632.601 409.555 625.468 403.989C625.614 403.246 625.786 402.487 625.917 401.746L627.131 394.503C628.502 386.353 629.608 378.13 630.927 369.967Z" fill="none" stroke="white" stroke-width="8" stroke-linecap="round" stroke-linejoin="round" vector-effect="non-scaling-stroke"/>
  <path d="M389.434 321.251C395.931 322.303 404.026 323.989 410.505 325.372L413.994 326.133C415.072 326.378 416.182 326.657 417.257 326.892L419.275 327.341C421.293 327.797 423.022 328.253 425.006 328.766C424.33 332.962 421.414 359.894 420.483 361.672L414.246 362.873C409.319 363.83 404.402 364.838 399.495 365.895L393.946 367.075L393.083 359.999C391.661 347.674 389.79 333.594 389.434 321.251Z" fill="none" stroke="white" stroke-width="8" stroke-linecap="round" stroke-linejoin="round" vector-effect="non-scaling-stroke"/>
  <path d="M634.031 322.149C635.454 322.358 634.865 323.559 634.801 324.753C634.029 339.235 631.731 353.502 629.769 367.852C628.776 367.606 627.737 367.322 626.745 367.101L622.238 366.142L612.994 364.105L605.614 362.523C605.205 362.453 603.559 362.161 603.465 361.918C602.544 359.538 601.337 346.932 601.095 344.748L600.088 336.248C599.818 333.86 599.526 331.789 599.299 329.365L605.256 328.116L610.006 327.131L619.505 325.111L624.255 324.099C627.352 323.453 630.946 322.701 634.031 322.149Z" fill="none" stroke="white" stroke-width="8" stroke-linecap="round" stroke-linejoin="round" vector-effect="non-scaling-stroke"/>
  <path d="M391.651 369.567C393.551 369.774 394.064 379.032 394.402 381.253L396.411 393.753L396.904 396.754L397.403 399.754C397.647 401.147 397.86 402.3 398.144 403.693C391.969 408.309 382.805 415.507 377.143 420.614C375.784 417.836 374.469 414.978 373.103 412.25C368.319 401.723 362.335 390.115 357.291 379.393C368.754 376.277 379.773 372.291 391.651 369.567Z" fill="none" stroke="white" stroke-width="8" stroke-linecap="round" stroke-linejoin="round" vector-effect="non-scaling-stroke"/>
  <path d="M396.306 533.853C400.648 535.106 405.592 536.312 410.005 537.335L412.261 537.863L414.28 538.334L420.878 539.844C422.529 551.691 423.425 563.867 425.745 575.599C422.449 576.224 419.146 576.812 415.837 577.366L415.718 577.387C413.054 577.844 410.396 578.34 407.746 578.872C406.862 579.043 405.872 579.25 404.996 579.403L396.496 580.906C394.8 581.231 393.096 581.514 391.387 581.756C391.944 569.829 393.627 557.133 394.95 545.249L396.306 533.853Z" fill="none" stroke="white" stroke-width="8" stroke-linecap="round" stroke-linejoin="round" vector-effect="non-scaling-stroke"/>
  <path d="M375.981 484.917C383.789 490.752 390.974 496.867 399.171 502.322C397.843 512.042 396.486 522.066 394.968 531.748C393.653 531.354 392.328 530.996 390.994 530.672C388.522 530.081 386.065 529.424 383.628 528.704C383.568 528.685 383.508 528.666 383.448 528.647L382.754 528.443C374.557 526 366.385 523.479 358.237 520.879C363.73 508.828 370.35 496.849 375.981 484.917Z" fill="none" stroke="white" stroke-width="8" stroke-linecap="round" stroke-linejoin="round" vector-effect="non-scaling-stroke"/>
  <path d="M648.941 484.975C651.246 487.015 663.702 515.339 665.815 519.891C657.272 523.069 648.322 525.518 639.622 528.193C639.444 528.251 639.266 528.308 639.089 528.366C635.999 529.273 632.893 530.125 629.773 530.92C628.604 521.398 626.607 511.951 625.27 502.464C626.237 501.798 627.263 501.127 628.207 500.44C635.179 495.368 642.091 490.212 648.941 484.975Z" fill="none" stroke="white" stroke-width="8" stroke-linecap="round" stroke-linejoin="round" vector-effect="non-scaling-stroke"/>
  <path d="M549.922 305.432C552.256 307.224 564.607 330.466 566.891 334.656C556.773 336.635 546.076 339.242 535.973 341.522L532.293 339.387C526.428 336.346 518.832 331.284 513.198 327.709C525.061 320.699 538.471 312.949 549.922 305.432Z" fill="none" stroke="white" stroke-width="8" stroke-linecap="round" stroke-linejoin="round" vector-effect="non-scaling-stroke"/>
  <path d="M532.939 563.063C543.265 566.269 555.604 568.735 566.275 571.069C563.99 575.343 551.725 597.431 549.496 599.457L548.686 599.035C536.846 591.305 524.956 583.651 513.018 576.074C519.839 572.049 526.38 567.508 532.939 563.063Z" fill="none" stroke="white" stroke-width="8" stroke-linecap="round" stroke-linejoin="round" vector-effect="non-scaling-stroke"/>
  <path d="M488.809 563.375C495.602 567.623 502.467 571.755 509.403 575.767C505.598 578.319 475.54 596.978 474.439 598.415L472.945 598.373C471.69 595.321 467.611 588.639 465.842 585.606C462.959 580.663 460.295 575.507 457.452 570.599C460.881 569.842 464.309 569.141 467.743 568.37L471.006 567.622C474.537 566.836 477.993 565.955 481.507 565.11L483.506 564.648C485.355 564.237 486.959 563.872 488.809 563.375Z" fill="none" stroke="white" stroke-width="8" stroke-linecap="round" stroke-linejoin="round" vector-effect="non-scaling-stroke"/>
  <path d="M474.052 306.001C476.512 307.43 479.176 309.17 481.567 310.731C490.543 316.594 500.674 321.656 509.456 327.712C503.19 331.751 498.226 334.525 491.963 339.022C487.302 342.094 477.157 337.946 471.24 336.595L469.239 336.13C468.53 335.966 467.701 335.763 466.991 335.612L464.493 335.073C462.293 334.615 460.224 334.192 458.031 333.682C463.316 323.941 468.623 315.479 474.052 306.001Z" fill="none" stroke="white" stroke-width="8" stroke-linecap="round" stroke-linejoin="round" vector-effect="non-scaling-stroke"/>
  <path d="M422.5 540.291C424.96 540.764 427.541 541.379 430.006 541.899L432.256 542.379C435.371 543.041 438.499 543.672 441.633 544.237C446.017 552.292 450.128 560.984 454.381 569.205C452.731 569.765 452.082 569.935 450.391 570.33C449.755 570.485 449.091 570.655 448.452 570.801L445.994 571.368C439.71 572.757 433.511 574.071 427.206 575.361C426.846 572.905 426.449 570.457 426.108 567.998L425.113 560.999C424.2 554.141 423.506 547.106 422.5 540.291Z" fill="none" stroke="white" stroke-width="8" stroke-linecap="round" stroke-linejoin="round" vector-effect="non-scaling-stroke"/>
  <path d="M631.76 453.277C633.898 455.215 646.236 479.325 648.192 483.23C643.122 487.269 637.951 491.179 632.683 494.957C630.074 496.835 627.525 498.589 624.892 500.418C623.771 493.254 622.451 486.117 621.075 478.997C620.808 477.306 620.493 475.624 620.131 473.951C623.723 467.98 628.392 459.435 631.76 453.277Z" fill="none" stroke="white" stroke-width="8" stroke-linecap="round" stroke-linejoin="round" vector-effect="non-scaling-stroke"/>
  <path d="M600.953 540.196C601.381 540.759 601.323 540.958 601.219 541.765L600.068 550.504C599.103 558.417 597.905 567.107 596.442 574.947C589.445 573.445 582.25 572.427 575.305 570.878C573.178 570.502 571.64 570.223 569.524 569.699C573.151 563.384 580.14 550.646 583.115 544.24C584.913 543.878 586.709 543.502 588.505 543.129C592.678 542.254 596.828 541.276 600.953 540.196Z" fill="none" stroke="white" stroke-width="8" stroke-linecap="round" stroke-linejoin="round" vector-effect="non-scaling-stroke"/>
  <path d="M426.739 328.87C431.415 329.869 436.09 330.822 440.757 331.871L445.257 332.886C448.464 333.587 451.656 334.356 454.83 335.191C451.234 341.884 448.027 348.924 444.445 355.478C443.158 357.706 441.183 357.394 438.745 357.926L436.241 358.417C434.651 358.725 433.052 359.105 431.491 359.394C428.426 359.937 425.371 360.542 422.33 361.209C422.939 357.279 423.426 353.678 423.93 349.748L424.945 341.748C425.411 337.438 426.01 333.144 426.739 328.87Z" fill="none" stroke="white" stroke-width="8" stroke-linecap="round" stroke-linejoin="round" vector-effect="non-scaling-stroke"/>
  <path d="M603.43 363.947C611.958 366.067 620.944 367.397 629.43 369.719C628.549 374.795 627.89 379.912 627.065 385.003L626.086 391.004C625.681 393.497 625.305 395.992 624.857 398.478C624.614 399.963 624.375 401.507 624.111 402.978C618.133 398.404 611.956 394.094 605.6 390.06C604.866 381.822 603.696 372.145 603.43 363.947Z" fill="none" stroke="white" stroke-width="8" stroke-linecap="round" stroke-linejoin="round" vector-effect="non-scaling-stroke"/>
  <path d="M419.204 363.603C421.39 363.561 420.296 365.964 420.056 367.999C419.243 374.868 418.931 381.88 417.861 388.699C412.09 393.054 406.249 397.322 400.531 401.754C399.481 402.568 399.458 401.072 399.334 400.368L397.922 392.254C397.81 391.668 397.698 391.083 397.586 390.497L396.105 381.498C395.481 377.237 394.726 373.081 394.296 368.787C395.478 368.564 396.588 368.328 397.755 368.096L402.505 367.132C405.652 366.462 408.879 365.855 412.005 365.165C414.399 364.618 416.799 364.097 419.204 363.603Z" fill="none" stroke="white" stroke-width="8" stroke-linecap="round" stroke-linejoin="round" vector-effect="non-scaling-stroke"/>
  <path d="M392.119 454.304C394.342 456.852 400.907 469.631 402.908 473.3L403.319 474.069L403.756 474.866C403.391 478.065 403.137 479.39 402.586 482.505L402.126 485.006C401.14 490.201 400.354 495.434 399.309 500.611L392.386 495.432C387.296 491.755 381.747 487.42 376.96 483.386C381.865 473.616 386.919 463.921 392.119 454.304Z" fill="none" stroke="white" stroke-width="8" stroke-linecap="round" stroke-linejoin="round" vector-effect="non-scaling-stroke"/>
  <path d="M596.266 330.103C596.434 330.084 597.318 329.946 597.377 330.182C598.572 334.917 599.53 344.197 599.947 348.751C600.371 353.11 600.871 357.461 601.446 361.802C600.397 361.564 599.287 361.27 598.245 361.062L593.244 360.098L585.245 358.579C583.733 358.303 582.23 357.998 580.734 357.642C577.008 351.013 573.271 342.997 569.839 336.135L576.005 334.664L584.757 332.632L587.007 332.119C590.022 331.451 593.263 330.702 596.266 330.103Z" fill="none" stroke="white" stroke-width="8" stroke-linecap="round" stroke-linejoin="round" vector-effect="non-scaling-stroke"/>
  <path d="M397.991 405.971C398.832 406.75 402.145 428.376 402.749 431.469C399.473 437.33 395.375 444.273 392.357 450.087C391.086 448.02 389.99 445.843 388.823 443.708C385.232 436.554 381.41 429.45 377.86 422.219C384.538 416.68 391.304 411.449 397.991 405.971Z" fill="none" stroke="white" stroke-width="8" stroke-linecap="round" stroke-linejoin="round" vector-effect="non-scaling-stroke"/>
  <path d="M579.352 545.09C579.605 545.101 580.043 545.071 580.256 545.244C580.296 546.092 569.861 565.183 568.436 567.717L567.474 569.405C565.57 568.919 563.43 568.492 561.494 568.085C555.346 566.778 549.217 565.386 543.108 563.911C540.321 563.099 537.918 562.528 535.073 561.585C539.803 558.917 552.719 549.664 556.749 549.042C564.263 547.882 571.734 546.7 579.352 545.09Z" fill="none" stroke="white" stroke-width="8" stroke-linecap="round" stroke-linejoin="round" vector-effect="non-scaling-stroke"/>
  <path d="M625.235 406.233C632.115 411.411 639.531 417.126 646.057 422.722C642.8 428.991 638.891 436.729 635.458 442.768C634.333 444.888 633.156 446.977 632.02 449.093C628.296 442.473 624.644 436.064 621.019 429.374C622.495 422.059 624.27 413.606 625.235 406.233Z" fill="none" stroke="white" stroke-width="8" stroke-linecap="round" stroke-linejoin="round" vector-effect="non-scaling-stroke"/>
  <path d="M443.792 544.637C472.578 549.547 462.011 545.367 485.735 561.116L487.202 562.075L483.745 562.869C482.662 563.119 481.698 563.339 480.62 563.619C478.702 563.949 476.66 564.454 474.745 564.875L472.494 565.373L470.245 565.87C465.493 566.908 461.016 568.01 456.218 568.933C452.252 561.314 447.518 552.306 443.792 544.637Z" fill="none" stroke="white" stroke-width="8" stroke-linecap="round" stroke-linejoin="round" vector-effect="non-scaling-stroke"/>
  <path d="M400.738 503.715C403.771 505.894 417.26 514.018 418.264 516.391C418.887 523.308 419.571 530.745 420.758 537.574C417.47 537.449 411.882 535.921 408.491 535.112L406.491 534.628L404.492 534.142C401.776 533.479 399.143 532.724 396.431 532.086C397.832 522.565 399.168 513.218 400.738 503.715Z" fill="none" stroke="white" stroke-width="8" stroke-linecap="round" stroke-linejoin="round" vector-effect="non-scaling-stroke"/>
  <path d="M606.021 516.078C610.109 512.525 618.913 507.386 623.794 503.72L625.076 512.246C625.374 514.137 625.768 516.095 626.086 517.996C626.862 522.471 627.58 526.956 628.24 531.451C620.926 533.389 613.599 535.275 606.259 537.111C605.288 537.361 604.261 537.682 603.294 537.967C604.409 530.659 605.228 523.423 606.021 516.078Z" fill="none" stroke="white" stroke-width="8" stroke-linecap="round" stroke-linejoin="round" vector-effect="non-scaling-stroke"/>
  <path d="M433.796 190.594C447.963 181.804 471.859 174.611 488.078 172.174L489.038 173.352C476.613 178.771 466.009 187.648 458.488 198.925C449.23 194.761 443.81 192.501 433.796 190.594Z" fill="none" stroke="white" stroke-width="8" stroke-linecap="round" stroke-linejoin="round" vector-effect="non-scaling-stroke"/>
  <path d="M457.008 335.344C457.734 335.54 458.527 335.781 459.255 335.929L461.505 336.396C466.453 337.434 471.33 338.768 476.257 339.895L480.506 340.857L482.505 341.322C483.954 341.659 485.214 342.019 486.639 342.384C481.645 345.449 475.81 348.981 471.015 352.309C467.328 354.107 458.989 355.017 454.748 355.453C451.734 355.773 448.73 356.177 445.739 356.664C449.079 350.047 453.196 341.625 457.008 335.344Z" fill="none" stroke="white" stroke-width="8" stroke-linecap="round" stroke-linejoin="round" vector-effect="non-scaling-stroke"/>
  <path d="M565.965 336.626C566.352 336.544 567.628 336.233 567.754 336.456C570.034 340.521 577.01 353.871 578.751 357.335C571.046 355.951 562.752 354.37 554.942 353.979C552.4 351.929 541.651 345.223 538.306 343.05C547.493 341.006 556.765 338.44 565.965 336.626Z" fill="none" stroke="white" stroke-width="8" stroke-linecap="round" stroke-linejoin="round" vector-effect="non-scaling-stroke"/>
  <path d="M535.468 172.423C556.173 175.901 569.469 181.294 588.542 189.623C579.996 191.889 573.816 194.56 565.952 198.477C556.677 186.012 549.564 179.67 535.047 173.392L535.468 172.423Z" fill="none" stroke="white" stroke-width="8" stroke-linecap="round" stroke-linejoin="round" vector-effect="non-scaling-stroke"/>
  <path d="M563.621 703.879C571.817 707.909 576.659 710.059 585.65 712.447C570.364 721.042 555.28 725.957 538.072 729.071C537.244 728.872 536.429 728.671 535.597 728.49C547.897 722.533 556.046 715.128 563.621 703.879Z" fill="none" stroke="white" stroke-width="8" stroke-linecap="round" stroke-linejoin="round" vector-effect="non-scaling-stroke"/>
  <path d="M439.493 711.404C446.885 709.871 452.709 707.164 459.437 703.997C466.495 714.335 474.428 721.539 485.326 727.69L484.394 728.738C482.776 728.26 481.342 728.001 479.744 727.606C467.309 724.531 449.606 719.443 438.907 712.342L439.493 711.404Z" fill="none" stroke="white" stroke-width="8" stroke-linecap="round" stroke-linejoin="round" vector-effect="non-scaling-stroke"/>
  <path d="M511.235 328.97C513.347 329.785 529.545 339.973 532.837 341.855C528.818 342.921 518.403 345.926 514.874 345.757C508.949 345.154 504.003 343.736 498.243 342.58L495.994 342.115C494.345 341.762 492.771 341.37 491.131 340.999C497.789 337.309 504.689 332.943 511.235 328.97Z" fill="none" stroke="white" stroke-width="8" stroke-linecap="round" stroke-linejoin="round" vector-effect="non-scaling-stroke"/>
  <path d="M618.359 477.374C619.707 478.723 623.021 498.202 623.748 501.595C619.749 504.469 614.938 507.998 610.765 510.612C609.219 511.588 607.687 512.582 606.168 513.599C607.006 506.404 608.176 499.374 608.736 492.138C611.786 488.039 615.774 481.657 618.359 477.374Z" fill="none" stroke="white" stroke-width="8" stroke-linecap="round" stroke-linejoin="round" vector-effect="non-scaling-stroke"/>
  <path d="M581.78 359.814C588.307 360.849 594.934 362.148 601.448 363.347C602.135 371.08 603.262 380.663 603.564 388.297C589.195 379.9 587.803 374.858 581.78 359.814Z" fill="none" stroke="white" stroke-width="8" stroke-linecap="round" stroke-linejoin="round" vector-effect="non-scaling-stroke"/>
  <path d="M439.278 359.648C439.97 359.54 441.643 359.062 442.052 359.792C441.742 360.89 438.62 366.703 437.902 368.211C432.286 380.008 433.119 379.397 421.802 386.012C421.448 386.253 420.703 386.778 420.21 386.778C420.175 386.758 420.139 386.737 420.104 386.716C420.466 378.9 421.461 370.691 422.274 362.865C427.961 361.888 433.579 360.557 439.278 359.648Z" fill="none" stroke="white" stroke-width="8" stroke-linecap="round" stroke-linejoin="round" vector-effect="non-scaling-stroke"/>
  <path d="M417.487 391.491C417.827 394.842 416.8 402.533 416.125 406.508C415.359 411.013 408.586 419.787 406.609 424.518C405.368 427.486 404.542 429.497 403.696 425.875C402.28 418.685 401.354 411.603 400.072 404.448C405.799 400.259 411.777 395.443 417.487 391.491Z" fill="none" stroke="white" stroke-width="8" stroke-linecap="round" stroke-linejoin="round" vector-effect="non-scaling-stroke"/>
  <path d="M509.806 558.57C513.889 558.152 525.928 561.173 530.18 562.501C524.184 566.704 518.015 570.653 511.687 574.337C510.409 574.703 494.223 564.264 491.772 562.747C492.684 562.531 493.584 562.245 494.505 562.066L496.755 561.611C498.257 561.309 499.526 560.981 501.006 560.643L509.806 558.57Z" fill="none" stroke="white" stroke-width="8" stroke-linecap="round" stroke-linejoin="round" vector-effect="non-scaling-stroke"/>
  <path d="M405.205 477.901C406.274 478.987 412.978 490.531 415.218 493.175C417.262 498.739 417.057 506.275 417.489 512.227C417.547 513.025 415.589 511.624 415.493 511.559C410.408 508.321 405.878 505.32 401.043 501.766C402.221 493.988 403.433 485.554 405.205 477.901Z" fill="none" stroke="white" stroke-width="8" stroke-linecap="round" stroke-linejoin="round" vector-effect="non-scaling-stroke"/>
  <path d="M606.033 392.874C612.06 395.968 618.082 401.077 623.789 404.812C622.786 411.306 621.249 417.832 620.123 424.311C620.009 424.964 620.035 426.509 619.263 426.812C619.226 426.827 619.106 426.692 619.125 426.719C617.525 424.491 616.407 421.926 614.902 419.628C606.008 406.569 607.344 408.344 606.033 392.874Z" fill="none" stroke="white" stroke-width="8" stroke-linecap="round" stroke-linejoin="round" vector-effect="non-scaling-stroke"/>
  <path d="M620.451 432.75C621.923 434.149 629.676 448.365 631.108 451.068C628.227 456.209 625.287 461.106 622.465 466.334L622.205 466.805C621.379 468.266 620.643 469.649 619.871 471.133C619.484 469.079 619.051 467.035 618.591 464.996L618.114 462.743L617.62 460.493C617.425 459.578 615.933 453.12 615.988 452.747C616.946 446.317 618.894 439.108 620.451 432.75Z" fill="none" stroke="white" stroke-width="8" stroke-linecap="round" stroke-linejoin="round" vector-effect="non-scaling-stroke"/>
  <path d="M419.849 516.552C421.522 516.83 431.108 522.318 431.853 523.599C435.108 529.191 437.514 536.119 440.62 541.925C437.573 541.425 435.268 540.969 432.257 540.391C429.916 539.921 427.581 539.418 425.254 538.881C424.214 538.64 423.178 538.386 422.171 538.034C421.661 531.559 420.755 522.94 419.849 516.552Z" fill="none" stroke="white" stroke-width="8" stroke-linecap="round" stroke-linejoin="round" vector-effect="non-scaling-stroke"/>
  <path d="M403.302 434.367C404.834 435.89 405.14 441.929 405.876 444.255C408.065 451.168 407.283 453.983 406.081 460.758L405.566 463.508C405.064 466.262 404.534 469.01 404.092 471.775C403.15 470.083 402.278 468.412 401.317 466.715C398.971 462.098 395.657 456.478 392.992 452.081C396.426 446.502 400.029 440.073 403.302 434.367Z" fill="none" stroke="white" stroke-width="8" stroke-linecap="round" stroke-linejoin="round" vector-effect="non-scaling-stroke"/>
  <path d="M592.865 524.325C595.073 522.92 602.488 517.82 604.234 517.507C603.306 524.221 602.555 531.366 601.833 538.124C596.785 539.598 589.715 540.793 584.456 541.896C587.079 536.057 589.843 529.961 592.865 524.325Z" fill="none" stroke="white" stroke-width="8" stroke-linecap="round" stroke-linejoin="round" vector-effect="non-scaling-stroke"/>
  <path d="M464.899 356.266C464.906 356.27 465.428 356.506 465.273 356.672C460.953 361.269 440.298 373.847 436.539 375.879C435.99 375.56 436.368 375.259 436.585 374.795C439.073 369.482 441.969 364.257 444.515 358.988C451.251 357.865 458.111 357.01 464.899 356.266Z" fill="none" stroke="white" stroke-width="8" stroke-linecap="round" stroke-linejoin="round" vector-effect="non-scaling-stroke"/>
  <path d="M588.43 527.052C589.33 528.35 583.108 540.348 582.071 542.219C573.72 544.344 569.637 544.843 561.211 545.828C561.065 545.761 560.919 545.694 560.774 545.627C560.707 545.812 570.796 537.406 571.29 537.068C576.633 533.409 582.749 530.22 588.43 527.052Z" fill="none" stroke="white" stroke-width="8" stroke-linecap="round" stroke-linejoin="round" vector-effect="non-scaling-stroke"/>
  <path d="M558.168 356.414C565.576 357.079 572.313 358.22 579.616 359.195L586.988 376.16C581.039 373.779 564.082 360.447 558.168 356.414Z" fill="none" stroke="white" stroke-width="8" stroke-linecap="round" stroke-linejoin="round" vector-effect="non-scaling-stroke"/>
  <path d="M435.512 526.235C443.295 528.705 456.416 539.751 463.202 545.043C456.359 544.511 449.151 543.188 442.315 542.303C439.964 537.511 437.55 531.29 435.512 526.235Z" fill="none" stroke="white" stroke-width="8" stroke-linecap="round" stroke-linejoin="round" vector-effect="non-scaling-stroke"/>
  <path d="M608.252 413.71C611.177 416.041 616.825 426.054 619.104 429.694C618.001 434.729 617.159 438.866 615.712 443.894C615.605 444.477 615.437 446.717 614.75 447.009L614.584 446.439C611.481 435.451 608.377 425.203 608.252 413.71Z" fill="none" stroke="white" stroke-width="8" stroke-linecap="round" stroke-linejoin="round" vector-effect="non-scaling-stroke"/>
  <path d="M475.929 549.843L481.248 550.565C483.414 550.935 485.915 551.127 487.998 551.565C494.606 552.952 500.847 555.087 507.478 556.556C503.039 557.887 498.282 559.082 493.766 560.143L491.758 560.621C490.959 560.812 490.144 561.044 489.341 561.246C485.117 557.96 480.781 554.82 476.343 551.83L475.929 549.843Z" fill="none" stroke="white" stroke-width="8" stroke-linecap="round" stroke-linejoin="round" vector-effect="non-scaling-stroke"/>
  <path d="M415.156 412.885C415.38 414.578 413.964 428.038 413.347 429.492C412.304 431.947 409.296 447.06 408.731 447.763L408.684 447.756C408.33 447.399 408.317 446.886 408.229 446.375C407.85 444.832 407.494 443.284 407.16 441.731C406.359 438.067 405.684 434.868 404.655 431.252C407.762 425.821 411.666 417.924 415.156 412.885Z" fill="none" stroke="white" stroke-width="8" stroke-linecap="round" stroke-linejoin="round" vector-effect="non-scaling-stroke"/>
  <path d="M544.374 550.705C545.569 550.554 547.076 550.263 548.175 550.761L548.141 550.711L548.156 550.774C547.229 552.267 534.92 559.813 532.675 561.106C529.694 560.139 526.675 559.288 523.627 558.557C522.504 558.217 521.371 557.912 520.23 557.641C518.553 557.245 517.028 556.806 515.365 556.382C518.11 555.959 521.902 555.419 524.493 554.443C531.167 551.928 537.284 551.406 544.374 550.705Z" fill="none" stroke="white" stroke-width="8" stroke-linecap="round" stroke-linejoin="round" vector-effect="non-scaling-stroke"/>
  <path d="M488.617 342.947C493.154 342.867 503.529 345.793 508.274 346.969L502.71 348.311L498.495 349.315C496.865 349.698 495.202 350.053 493.584 350.446C487.606 351.75 480.701 351.861 474.542 352.268C479.564 349.208 483.682 345.836 488.617 342.947Z" fill="none" stroke="white" stroke-width="8" stroke-linecap="round" stroke-linejoin="round" vector-effect="non-scaling-stroke"/>
  <path d="M407.669 461.477C407.748 461.011 407.98 457.839 408.646 457.858C408.924 458.136 408.969 458.479 409.032 458.85L409.209 459.53C412.702 470.302 414.68 478.091 415.192 489.407C411.74 484.788 408.069 479.549 405.437 474.413C406.201 470.318 407.161 465.571 407.669 461.477Z" fill="none" stroke="white" stroke-width="8" stroke-linecap="round" stroke-linejoin="round" vector-effect="non-scaling-stroke"/>
  <path d="M407.669 461.477C407.748 461.011 407.98 457.839 408.646 457.858C408.924 458.136 408.969 458.479 409.032 458.85L409.209 459.53C408.7 460.183 408.187 460.832 407.669 461.477Z" fill="none" stroke="white" stroke-width="8" stroke-linecap="round" stroke-linejoin="round" vector-effect="non-scaling-stroke"/>
  <path d="M614.82 458.431C615.709 459.472 617.958 472.109 618.501 474.328C615.711 478.312 613.198 482.609 610.46 486.691C610.294 486.945 609.929 487.381 609.745 487.788C609.582 488.151 609.064 488.48 609.042 488.242C608.274 479.755 611.905 470.066 613.895 461.993C615.256 456.469 614.35 460.323 614.82 458.431Z" fill="none" stroke="white" stroke-width="8" stroke-linecap="round" stroke-linejoin="round" vector-effect="non-scaling-stroke"/>
  <path d="M534.317 343.588C535.148 343.495 535.491 343.521 536.218 344.025C540.513 347.022 544.907 349.874 549.393 352.578C544.646 351.893 540.216 351.701 535.542 350.928C530.084 350.148 524.83 348.477 519.516 347.069C521.298 346.575 523.216 345.992 525.005 345.609L527.256 345.111C527.979 344.948 528.784 344.763 529.506 344.616L534.317 343.588Z" fill="none" stroke="white" stroke-width="8" stroke-linecap="round" stroke-linejoin="round" vector-effect="non-scaling-stroke"/>
  <path d="M418.109 498.783C424.617 503.764 427.127 512.884 430.17 520.333C427.229 519.31 422.294 515.766 419.728 513.868C419.167 508.945 418.684 503.554 418.109 498.783Z" fill="none" stroke="white" stroke-width="8" stroke-linecap="round" stroke-linejoin="round" vector-effect="non-scaling-stroke"/>
  <path d="M605.407 498.47C606.138 499.651 604.533 511.748 604.42 514.782C601.22 516.848 598.277 518.937 594.983 520.946C594.324 520.235 594.753 519.703 595.128 518.798C598.205 511.385 600.16 504.744 605.407 498.47Z" fill="none" stroke="white" stroke-width="8" stroke-linecap="round" stroke-linejoin="round" vector-effect="non-scaling-stroke"/>
  <path d="M429.472 383.461C430.366 384.284 425.344 395.05 424.552 396.282C423.196 398.389 420.66 401.267 419.075 403.346C418.344 402.741 419.164 391.607 419.281 389.701C419.557 389.54 419.836 389.384 420.117 389.232C423.142 387.578 426.517 385.306 429.472 383.461Z" fill="none" stroke="white" stroke-width="8" stroke-linecap="round" stroke-linejoin="round" vector-effect="non-scaling-stroke"/>
  <path d="M593.89 383.978C597.154 386.376 600.589 388.829 603.798 391.229C604.175 395.27 604.422 399.598 604.929 403.577C601.202 400.88 595.091 388.834 593.89 383.978Z" fill="none" stroke="white" stroke-width="8" stroke-linecap="round" stroke-linejoin="round" vector-effect="non-scaling-stroke"/>
  <path d="M609.344 435.474C610.324 438.16 610.355 437.951 610.826 440.634C614.112 454.926 614.59 450.14 610.78 464.018C610.676 464.842 610.591 466.923 609.862 467.469L609.787 467.447C609.322 466.971 609.593 454.312 609.535 452.554C609.387 446.365 609.694 442.068 609.344 435.474Z" fill="none" stroke="white" stroke-width="8" stroke-linecap="round" stroke-linejoin="round" vector-effect="non-scaling-stroke"/>
  <path d="M609.535 452.554L609.955 452.703C610.314 456.392 609.408 461.523 610.78 464.018C610.676 464.842 610.591 466.923 609.862 467.469L609.787 467.447C609.322 466.971 609.593 454.312 609.535 452.554Z" fill="none" stroke="white" stroke-width="8" stroke-linecap="round" stroke-linejoin="round" vector-effect="non-scaling-stroke"/>
  <path d="M609.344 435.474C610.324 438.16 610.355 437.951 610.826 440.634C609.488 441.185 609.97 450.82 609.955 452.703L609.535 452.554C609.387 446.365 609.694 442.068 609.344 435.474Z" fill="none" stroke="white" stroke-width="8" stroke-linecap="round" stroke-linejoin="round" vector-effect="non-scaling-stroke"/>
  <path d="M596.162 510.465C596.468 512.462 592.237 521.266 591.175 523.401L580.857 529.076C580.658 528.076 594.328 512.63 596.162 510.465Z" fill="none" stroke="white" stroke-width="8" stroke-linecap="round" stroke-linejoin="round" vector-effect="non-scaling-stroke"/>
  <path d="M412.226 442.242C412.606 440.239 412.92 438.95 413.457 436.998C413.526 445.846 413.237 455.904 413.598 464.58L412.836 464.606C412.631 463.851 412.465 463.202 412.292 462.438C411.671 460.392 411.122 458.324 410.647 456.239C410.3 454.726 410.082 453.862 409.597 452.363C410.448 448.983 411.325 445.609 412.226 442.242Z" fill="none" stroke="white" stroke-width="8" stroke-linecap="round" stroke-linejoin="round" vector-effect="non-scaling-stroke"/>
  <path d="M412.226 442.242C412.606 440.239 412.92 438.95 413.457 436.998C413.526 445.846 413.237 455.904 413.598 464.58L412.836 464.606C412.631 463.851 412.465 463.202 412.292 462.438C413.551 460.307 413.241 444.934 412.708 442.319C412.578 442.2 412.405 442.243 412.226 442.242Z" fill="none" stroke="white" stroke-width="8" stroke-linecap="round" stroke-linejoin="round" vector-effect="non-scaling-stroke"/>
  <path d="M515.018 552.061C516.579 551.976 518.105 551.92 519.671 551.819C520.471 552.11 520.694 551.995 520.848 552.845C517.741 553.821 514.244 554.727 511.076 555.607C508.684 554.211 507.314 553.876 504.555 553.227C503.603 553.147 501.964 553.058 501.199 552.43L501.189 552.308C501.8 551.768 513.5 552.014 515.018 552.061Z" fill="none" stroke="white" stroke-width="8" stroke-linecap="round" stroke-linejoin="round" vector-effect="non-scaling-stroke"/>
  <path d="M504.555 553.227C503.603 553.147 501.964 553.058 501.199 552.43L501.189 552.308C501.8 551.768 513.5 552.014 515.018 552.061C510.902 552.773 506.94 551.779 504.555 553.227Z" fill="none" stroke="white" stroke-width="8" stroke-linecap="round" stroke-linejoin="round" vector-effect="non-scaling-stroke"/>
  <path d="M443.809 373.991C444.061 374.15 444.085 374.126 444.273 374.338C442.538 376.513 434.868 383.535 432.553 385.749C431.651 385.174 433.812 381.129 434.19 380.278C437.266 377.963 440.567 376.092 443.809 373.991Z" fill="none" stroke="white" stroke-width="8" stroke-linecap="round" stroke-linejoin="round" vector-effect="non-scaling-stroke"/>
  <path d="M546.207 547.254C550.961 545.219 556.273 543.374 561.136 541.484C553.908 547.248 555.894 546.815 547.15 548.234L546.207 547.254Z" fill="none" stroke="white" stroke-width="8" stroke-linecap="round" stroke-linejoin="round" vector-effect="non-scaling-stroke"/>
  <path d="M429.038 513.32C432.511 517.099 435.8 521.127 439.2 524.817L438.306 525.308L436.786 524.4C435.865 523.857 434.888 523.421 433.956 522.896C432.114 519.573 430.688 516.715 429.038 513.32Z" fill="none" stroke="white" stroke-width="8" stroke-linecap="round" stroke-linejoin="round" vector-effect="non-scaling-stroke"/>
  <path d="M462.656 540.873C464.918 542.068 473.508 545.795 475.746 546.294L474.258 547.221C466.077 545.298 469.693 546.375 462.498 541.587L462.656 540.873Z" fill="none" stroke="white" stroke-width="8" stroke-linecap="round" stroke-linejoin="round" vector-effect="non-scaling-stroke"/>
  <path d="M509.913 348.586C511.324 348.474 520.027 348.698 520.172 350.209C520.009 350.404 520.121 350.312 519.795 350.426L519.714 350.065C519.023 350.708 519.181 350.515 518.125 350.463C516.275 350.45 507.378 350.589 506.428 349.75C506.702 349.268 507.781 349.071 508.267 348.958L509.913 348.586Z" fill="none" stroke="white" stroke-width="8" stroke-linecap="round" stroke-linejoin="round" vector-effect="non-scaling-stroke"/>
  <path d="M548.291 355.591C554.312 355.374 555.282 356.884 560.043 360.572C557.391 359.894 551.238 356.912 548.291 355.591Z" fill="none" stroke="white" stroke-width="8" stroke-linecap="round" stroke-linejoin="round" vector-effect="non-scaling-stroke"/>
  <path d="M587.806 381.478C581.366 376.474 584.146 376.095 585.081 378.096C589.979 380.9 589.715 381.259 592.178 386.049C590.732 384.574 589.233 382.865 587.806 381.478Z" fill="none" stroke="white" stroke-width="8" stroke-linecap="round" stroke-linejoin="round" vector-effect="non-scaling-stroke"/>
  <path d="M587.806 381.478C581.366 376.474 584.146 376.095 585.081 378.096C586.043 379.47 586.762 380.211 587.806 381.478Z" fill="none" stroke="white" stroke-width="8" stroke-linecap="round" stroke-linejoin="round" vector-effect="non-scaling-stroke"/>
  <path d="M470.816 355.625C471.886 355.598 473.139 355.516 474.181 355.534L474.445 355.815L474.539 355.729C473.688 356.349 468.428 358.525 467.178 359.109C466.813 359.244 465.294 359.997 464.921 359.701C465.065 358.754 469.906 356.061 470.816 355.625Z" fill="none" stroke="white" stroke-width="8" stroke-linecap="round" stroke-linejoin="round" vector-effect="non-scaling-stroke"/>
  <path d="M418.036 490.916C419.336 492.624 420.171 495.201 420.956 497.245C418.198 495.448 418.06 494.021 418.036 490.916Z" fill="none" stroke="white" stroke-width="8" stroke-linecap="round" stroke-linejoin="round" vector-effect="non-scaling-stroke"/>
  <path d="M492.391 171.3L493.2 172.047C491.507 172.495 490.652 172.834 489.038 173.352L488.078 172.174C488.611 172.022 488.477 172.046 488.998 171.951L492.391 171.3Z" fill="none" stroke="white" stroke-width="8" stroke-linecap="round" stroke-linejoin="round" vector-effect="non-scaling-stroke"/>
  <path d="M417.767 412.156C418.204 409.109 418.206 408.561 420.247 406.589C419.605 408.753 418.967 410.301 418.502 412.549L417.767 412.156Z" fill="none" stroke="white" stroke-width="8" stroke-linecap="round" stroke-linejoin="round" vector-effect="non-scaling-stroke"/>
  <path d="M519.671 551.819C520.522 551.587 523.377 551.209 524.126 551.657L524.135 551.726C523.492 552.405 521.714 552.63 520.848 552.845C520.694 551.995 520.471 552.11 519.671 551.819Z" fill="none" stroke="white" stroke-width="8" stroke-linecap="round" stroke-linejoin="round" vector-effect="non-scaling-stroke"/>
  <path d="M603.087 405.242C605.354 406.777 605.417 407.973 605.483 410.615C604.415 409.004 603.894 407.061 603.087 405.242Z" fill="none" stroke="white" stroke-width="8" stroke-linecap="round" stroke-linejoin="round" vector-effect="non-scaling-stroke"/>
  <path d="M538.072 729.071C537.237 729.263 533.407 730.005 532.878 729.687C532.924 729.212 535.243 728.61 535.597 728.49C536.429 728.671 537.244 728.872 538.072 729.071Z" fill="none" stroke="white" stroke-width="8" stroke-linecap="round" stroke-linejoin="round" vector-effect="non-scaling-stroke"/>
  <path d="M605.128 491.828C606.171 492.702 606.302 493.096 605.474 494.245C605.241 494.297 605.009 494.35 604.776 494.402C604.741 494.377 604.706 494.352 604.671 494.328C604.51 493.978 604.942 492.805 604.98 492.675L605.128 491.828Z" fill="none" stroke="white" stroke-width="8" stroke-linecap="round" stroke-linejoin="round" vector-effect="non-scaling-stroke"/>
  <path d="M532.052 172.39C531.384 172.223 529.215 171.679 528.764 171.208L528.803 171.132C529.429 170.777 531.871 171.426 532.709 171.543L532.052 172.39Z" fill="none" stroke="white" stroke-width="8" stroke-linecap="round" stroke-linejoin="round" vector-effect="non-scaling-stroke"/>
  <path d="M532.709 171.543C533.665 171.824 534.528 172.109 535.468 172.423L535.047 173.392C533.846 173.038 533.213 172.855 532.052 172.39L532.709 171.543Z" fill="none" stroke="white" stroke-width="8" stroke-linecap="round" stroke-linejoin="round" vector-effect="non-scaling-stroke"/>
  <path d="M462.498 541.587C461.974 541.328 459.861 540.489 459.842 539.756C460.307 538.94 462.371 540.676 462.656 540.873L462.498 541.587Z" fill="none" stroke="white" stroke-width="8" stroke-linecap="round" stroke-linejoin="round" vector-effect="non-scaling-stroke"/>
  <path d="M439.2 524.817C442.458 527.577 440.105 527.314 438.306 525.308L439.2 524.817Z" fill="none" stroke="white" stroke-width="8" stroke-linecap="round" stroke-linejoin="round" vector-effect="non-scaling-stroke"/>
  <path d="M485.326 727.69C485.897 727.961 487.774 728.737 488.182 729.19L488.198 729.267C487.834 729.582 484.934 728.837 484.394 728.738L485.326 727.69Z" fill="none" stroke="white" stroke-width="8" stroke-linecap="round" stroke-linejoin="round" vector-effect="non-scaling-stroke"/>
  <path d="M547.15 548.234C546.818 548.289 543.818 548.849 543.755 548.293C544.26 547.721 545.498 547.44 546.207 547.254L547.15 548.234Z" fill="none" stroke="white" stroke-width="8" stroke-linecap="round" stroke-linejoin="round" vector-effect="non-scaling-stroke"/>
  <path d="M413.598 464.58C414.525 467.351 413.137 467.345 412.954 465.556L412.836 464.606L413.598 464.58Z" fill="none" stroke="white" stroke-width="8" stroke-linecap="round" stroke-linejoin="round" vector-effect="non-scaling-stroke"/>
  <path d="M475.746 546.294L476.325 546.677C476.709 546.886 477.308 547.138 477.22 547.624C476.859 547.841 474.769 547.315 474.258 547.221L475.746 546.294Z" fill="none" stroke="white" stroke-width="8" stroke-linecap="round" stroke-linejoin="round" vector-effect="non-scaling-stroke"/>
  <path d="M476.343 551.83C475.009 550.774 472.414 549.261 475.929 549.843L476.343 551.83Z" fill="none" stroke="white" stroke-width="8" stroke-linecap="round" stroke-linejoin="round" vector-effect="non-scaling-stroke"/>
  <path d="M417.773 415.523C417.519 413.903 417.384 413.723 417.767 412.156L418.502 412.549C418.267 413.543 418.024 414.534 417.773 415.523Z" fill="none" stroke="white" stroke-width="8" stroke-linecap="round" stroke-linejoin="round" vector-effect="non-scaling-stroke"/>
  <path d="M492.391 171.3C493.144 171.122 493.833 170.894 494.589 171.152C494.77 171.597 493.37 171.977 493.2 172.047L492.391 171.3Z" fill="none" stroke="white" stroke-width="8" stroke-linecap="round" stroke-linejoin="round" vector-effect="non-scaling-stroke"/>
  <path d="M438.907 712.342C438.502 712.295 438.225 712.315 437.998 711.966L438.024 711.858C438.438 711.435 438.887 711.481 439.493 711.404L438.907 712.342Z" fill="none" stroke="white" stroke-width="8" stroke-linecap="round" stroke-linejoin="round" vector-effect="non-scaling-stroke"/>
</svg>

